<?xml version="1.0" encoding="utf-8"?>
<!-- Generator: Adobe Illustrator 18.0.0, SVG Export Plug-In . SVG Version: 6.00 Build 0)  -->
<!DOCTYPE svg PUBLIC "-//W3C//DTD SVG 1.1//EN" "http://www.w3.org/Graphics/SVG/1.1/DTD/svg11.dtd">
<svg version="1.1" id="Layer_1" xmlns="http://www.w3.org/2000/svg" xmlns:xlink="http://www.w3.org/1999/xlink" x="0px" y="0px"
	 viewBox="0 0 400 400" enable-background="new 0 0 400 400" xml:space="preserve">
<g>
	<g>
		<path fill="#131313" d="M41.2,400.2c-14.8,0-29.5,0-44.3,0c-0.7,0-0.9-0.1-0.9-0.9C-4,267.4-4,135.5-4,3.6c0.7-0.4,1,0.1,1.5,0.4
			c2.6,2.1,5.2,4.3,7.8,6.4c7,5.9,14.1,11.7,21.1,17.6c0.7,0.6,1,1.2,0.9,2c0,0.5,0,1,0,1.5c0,79.2,0,158.4,0,237.6
			c0,0.9,0,1.7,0.1,2.6c0.2,1.3,1,2.1,2,2.1c1,0,1.8-0.8,2-2.1c0.1-0.6,0.1-1.2,0.1-1.8c0-79.9,0-159.7,0-239.6
			c0-2.3-0.8-3.9-2.5-5.4c-5.3-4.3-10.5-8.7-15.8-13.1C9.2,8.6,5.1,5.1,1,1.7C0.6,1.3-0.3,1.1,0,0.2c13.7,0,27.5,0,41.2,0
			c0.3,0.3,0.5,0.7,0.5,1.1c0,0.5,0,0.9,0,1.4c0,29,0,58,0,87.1c0,0.8,0,1.5,0.1,2.3c0.2,1.7,1.2,2.7,2.8,3.1
			c0.6,0.1,1.3,0.1,1.9,0.1c5,0,9.9,0,14.9,0c0.6,0,1.3,0,1.9-0.1c1.1-0.2,1.8-1,1.8-1.9c0-1-0.7-1.8-1.9-2
			c-0.6-0.1-1.3-0.1-1.9-0.1c-4.4,0-8.9,0-13.3,0c-0.4,0-0.8,0-1.2,0c-0.6,0-0.8-0.3-0.9-0.9c0-0.3,0-0.6,0-0.9
			c0-29.1,0-58.2,0-87.4c0-0.6-0.1-1.3,0.5-1.7c11.5,0,22.9,0,34.4,0c0.3,0.3,0.5,0.7,0.5,1.1c0,0.5,0,0.9,0,1.4
			c0,22.2,0,44.3,0,66.5c0,0.8,0,1.6,0.1,2.4c0.2,1.1,1,1.8,1.9,1.8c0.9,0,1.6-0.7,1.8-1.8c0.2-0.8,0.1-1.6,0.1-2.4
			c0-22.4,0-44.7,0-67.1c0-0.7-0.2-1.4,0.5-1.9c10.3,0,20.7,0,31,0c0.3,0.3,0.5,0.6,0.5,1c0,0.4,0,0.9,0,1.3c0,16.9,0,33.7,0,50.6
			c0,1.1-0.3,2-1,2.8c-7.6,9.1-15.1,18.3-22.6,27.5c-3.6,4.3-7.1,8.7-10.7,13c-1.2,1.4-1.7,2.9-1.7,4.8c0,11.4,0,22.9,0,34.3
			c0,20.6,0,41.1,0,61.7c0,0.5,0,1,0,1.5c0,1.7,0.6,3.1,2,4.1c4.8,3.6,9.6,7.2,14.4,10.8c5.5,4.2,11.1,8.3,16.6,12.5
			c1.4,1,1.4,1.3-0.1,2.3c-5.7,4-11.3,8-17,12c-4.7,3.3-9.4,6.6-14,9.9c-0.3,0.2-0.6,0.5-0.8,0.7c-1.1,1.3-1,2.7,0.4,3.8
			c1.3,1,2.6,1.8,3.9,2.7c5.9,4.1,11.9,8.1,17.8,12.2c3.2,2.2,6.4,4.3,9.6,6.6c1.1,0.8,1.1,1.2,0,1.9c-6.4,4.1-12.8,8.1-19.2,12.1
			c-3.9,2.5-7.8,5-11.7,7.5c-1.3,0.8-1.9,2-1.9,3.5c0,0.6,0,1.1,0,1.7c0,31.8,0,63.6,0,95.4c0,0.7,0.2,1.4-0.5,1.9
			c-11.5,0-23.1,0-34.6,0c-0.3-0.3-0.5-0.6-0.5-1.1c0-0.4,0-0.8,0-1.2c0-13.9,0-27.9,0-41.8c0-0.5,0-1.1,0-1.6
			c0.1-2-0.8-3.4-2.5-4.5c-8.1-5.2-16.1-10.5-24.1-15.7c-1.6-1-3.1-2-4.7-3.1c-0.5-0.3-0.8-0.8-0.7-1.4c0-0.4,0-0.9,0-1.3
			c0-18.4,0-36.7,0-55.1c0-0.8,0-1.5-0.1-2.3c-0.2-1.1-1.1-1.9-2-1.9c-0.9,0-1.7,0.8-1.9,1.9c-0.1,0.6-0.1,1.1-0.1,1.7
			c0,18.9,0,37.8,0,56.7c0,2.3,0.9,3.9,2.9,5.2c5.5,3.5,11,7.1,16.5,10.7c3.8,2.5,7.5,4.9,11.3,7.4c1.1,0.7,1.5,1.5,1.5,2.9
			c0,14.2,0,28.5,0,42.7C41.7,399,41.9,399.7,41.2,400.2z"/>
		<path fill="#131313" d="M116.8,400.2c-10.3,0-20.7,0-31,0c-0.4-0.3-0.5-0.6-0.5-1c0-0.4,0-0.7,0-1.1c0-31.7,0-63.3,0-95
			c0-1.4,0.5-2.3,1.7-3.1c10.4-6.6,20.8-13.2,31.3-19.8c0.4-0.3,0.8-0.5,1.3-0.8c1.7-1.2,1.8-3.1,0.1-4.4c-1.3-1-2.6-1.8-3.9-2.7
			c-9-6.2-18.1-12.3-27.1-18.5c-1.6-1.1-1.6-1.3,0-2.4c9.3-6.6,18.7-13.2,28-19.8c1-0.7,1.9-1.4,2.8-2c1.8-1.3,1.9-3.2,0.1-4.6
			c-3.5-2.8-7.2-5.4-10.8-8.1c-6.6-5-13.3-10-19.9-14.9c-0.9-0.7-1.9-1.4-2.8-2.1c-0.5-0.4-0.8-0.9-0.7-1.5c0-0.5,0-0.9,0-1.4
			c0-31.6,0-63.3,0-94.9c0-1.4,0.4-2.4,1.3-3.5c7.4-8.9,14.7-17.9,22.1-26.9c3.7-4.5,7.3-9,11-13.4c1.1-1.4,1.6-2.9,1.6-4.7
			c0-17.1,0-34.3,0-51.4c0-0.6-0.2-1.3,0.5-1.8c5.8,0,11.6,0,17.4,0c0.7,0,0.8,0.1,0.8,0.8c0,25.7,0,51.3,0,77
			c0,107.1,0,214.2,0,321.2c0,0.9-0.2,1-1,1c-5.7,0-11.5,0-17.2,0c-0.3-0.3-0.5-0.7-0.5-1.1c0-0.4,0-0.9,0-1.3c0-23.7,0-47.3,0-71
			c0-0.8,0-1.6-0.1-2.4c-0.2-1.1-0.9-1.9-1.9-1.9c-0.9,0-1.7,0.7-1.9,1.9c-0.1,0.8-0.1,1.6-0.1,2.4c0,23.8,0,47.6,0,71.5
			C117.3,398.9,117.5,399.7,116.8,400.2z"/>
		<path fill="#3E3E3E" d="M121.8,0.2c0,18.1,0,36.2,0,54.3c0,1.5-0.7,2.6-1.5,3.7c-7.5,9.2-15.1,18.3-22.6,27.5
			c-3.6,4.4-7.3,8.9-10.9,13.3c-0.7,0.8-1,1.7-1,2.7c0,24.7,0,49.4,0,74.1c0,7.2,0,14.3,0,21.5c0,1.2,0.4,1.9,1.3,2.6
			c11,8.2,21.9,16.4,32.9,24.7c2,1.5,1.9,3.9-0.2,5.4c-10.3,7.3-20.6,14.5-30.9,21.8c-1.1,0.8-1.1,0.8,0,1.6c10.2,7,20.5,14,30.7,21
			c2.4,1.6,2.4,4.1,0,5.6c-7.7,4.9-15.4,9.8-23.1,14.7c-3.1,2-6.2,4-9.4,5.9c-0.9,0.6-1.3,1.2-1.3,2.3c0,27,0,54,0,81
			c0,5.4,0,10.9,0,16.3c-1.7,0-3.3,0-5,0c0-29.6,0-59.2,0-88.8c0-3.5,0-6.9,0-10.4c0-1.6,0.7-2.9,2-3.7c10.2-6.5,20.4-13,30.7-19.4
			c1.2-0.8,1.2-0.8,0.1-1.6c-10.1-6.9-20.2-13.8-30.3-20.7c-2.8-1.9-2.9-4-0.1-6c10.1-7.1,20.1-14.2,30.2-21.3
			c1.6-1.1,1.6-1.1,0-2.3c-10.2-7.7-20.4-15.3-30.6-23c-1.4-1-2-2.4-2-4.1c0-32.9,0-65.7,0-98.6c0-1.4,0.5-2.6,1.3-3.7
			c11.2-13.6,22.4-27.3,33.7-40.9c0.7-0.9,1-1.7,1-2.8c0-17.6,0-35.1,0-52.7C118.5,0.2,120.2,0.2,121.8,0.2z"/>
		<path fill="#3E3E3E" d="M0,0.2c9.6,8,19.3,16,28.9,24.1c0.4,0.4,0.9,0.7,1.3,1.1c1.3,1.1,1.8,2.5,1.8,4.2c0,62.6,0,125.1,0,187.7
			c0,17.8,0,35.5,0,53.3c0,0.6,0,1.2-0.1,1.8c-0.2,1.3-1.3,2.2-2.5,2.2c-1.3,0-2.3-0.9-2.5-2.2c-0.1-0.5-0.1-1.1-0.1-1.6
			c0-79.7,0-159.4,0-239.1c0-1.9-0.5-3-2-4.2C15.6,19.8,6.4,12.1-2.9,4.4c-0.3-0.3-0.7-0.5-1-0.8c0-1,0-2,0-3c0-0.3,0.1-0.4,0.4-0.4
			C-2.4,0.2-1.2,0.2,0,0.2z"/>
		<path fill="#3E3E3E" d="M41.2,400.2c0-14.7,0-29.5,0-44.2c0-1.3-0.4-2.1-1.5-2.8c-9.5-6.2-19-12.4-28.5-18.6
			c-1.4-0.9-2.2-2.3-2.2-4c0-19.6,0-39.2,0-58.8c0-0.5,0-1,0.2-1.5c0.4-1.1,1.5-1.8,2.6-1.6c1.1,0.1,2.1,1,2.2,2.1
			c0.1,0.6,0.1,1.2,0.1,1.8c0,18.7,0,37.3,0,56c0,1.4,0.5,2.2,1.6,3c9.4,6.1,18.7,12.2,28.1,18.3c1.7,1.1,2.4,2.5,2.4,4.5
			c0,6,0,12,0,18c0,9.3,0,18.6,0,27.9C44.6,400.2,42.9,400.2,41.2,400.2z"/>
		<path fill="#3E3E3E" d="M46.4,0.2c0,11,0,22.1,0,33.1c0,18.4,0,36.7,0,55.1c0,0.3,0,0.6,0,0.9c0,1.2,0.2,1.3,1.4,1.3
			c4.8,0,9.5,0,14.3,0c0.5,0,1,0,1.5,0.1c1.4,0.2,2.3,1.2,2.3,2.5c0,1.3-0.9,2.3-2.2,2.5c-0.3,0-0.7,0.1-1,0.1c-5.8,0-11.5,0-17.3,0
			c-0.7,0-1.3,0-1.9-0.4c-1.4-0.7-2.1-1.8-2.1-3.4c0-6.5,0-13.1,0-19.6c0-23.6,0-47.3,0-70.9c0-0.4,0-0.9,0-1.3
			C43,0.2,44.7,0.2,46.4,0.2z"/>
		<path fill="#3E3E3E" d="M116.8,400.2c0-25.1,0-50.2,0-75.4c0-0.9,0.1-1.8,0.9-2.4c1.4-1.2,3.6-0.5,4,1.3c0.1,0.4,0.1,0.7,0.1,1.1
			c0,25.1,0,50.2,0,75.4C120.2,400.2,118.5,400.2,116.8,400.2z"/>
		<path fill="#3E3E3E" d="M85.8,0.2c0,23.7,0,47.3,0,71c0,1.5-0.6,2.5-1.7,2.9c-1.4,0.5-3-0.4-3.2-2c-0.1-0.3-0.1-0.7-0.1-1
			c0-23.6,0-47.3,0-70.9C82.5,0.2,84.2,0.2,85.8,0.2z"/>
		<path fill="#3E3E3E" d="M51.7,231.7c0-37.8,0-75.6,0-113.4c0-0.5,0-0.9,0-1.4c0.1-1.5,1.2-2.7,2.6-2.6c1.3,0,2.4,1.1,2.5,2.6
			c0,0.4,0,0.7,0,1.1c0,75.9,0,151.8,0,227.7c0,0.3,0,0.7,0,1c-0.1,1.5-1.2,2.7-2.5,2.7c-1.4,0-2.5-1.2-2.6-2.7c0-0.5,0-0.9,0-1.4
			C51.7,307.4,51.7,269.5,51.7,231.7z"/>
		<path fill="#3E3E3E" d="M121.8,147.8c0,12.9,0,25.7,0,38.6c0,0.6,0,1.2-0.1,1.8c-0.2,1.2-1.2,2-2.4,2c-1.2,0-2.2-0.8-2.4-2
			c-0.1-0.4-0.1-0.9-0.1-1.3c0-26.1,0-52.1,0-78.2c0-0.5,0-0.9,0.1-1.4c0.2-1.2,1.2-2,2.4-2c1.2,0,2.2,0.8,2.4,2
			c0.1,0.6,0.1,1.2,0.1,1.8C121.8,122.1,121.8,135,121.8,147.8z"/>
	</g>
</g>
</svg>
